<?xml version="1.0" ?><!DOCTYPE svg  PUBLIC '-//W3C//DTD SVG 1.1//EN'  'http://www.w3.org/Graphics/SVG/1.1/DTD/svg11.dtd'><svg enable-background="new 0 0 128 128" height="128px" version="1.1" viewBox="0 0 128 128" width="128px" xml:space="preserve" xmlns="http://www.w3.org/2000/svg" xmlns:xlink="http://www.w3.org/1999/xlink"><g id="Layer_1"><path d="   M80,17.51c20.7,5.33,36,24.12,36,46.49s-15.3,41.16-36,46.49c-1.31,0.34-2.65,0.62-4,0.84c-1.31,0.23-2.65,0.39-4,0.5   c-1.32,0.11-2.65,0.17-4,0.17s-2.68-0.06-4-0.17c-1.35-0.11-2.69-0.27-4-0.5c-1.35-0.22-2.69-0.5-4-0.84   C35.3,105.16,20,86.37,20,64s15.3-41.16,36-46.49c1.31-0.34,2.65-0.62,4-0.84c1.31-0.23,2.65-0.39,4-0.5   c1.32-0.11,2.65-0.17,4-0.17s2.68,0.06,4,0.17c1.35,0.11,2.69,0.27,4,0.5C77.35,16.89,78.69,17.17,80,17.51z" fill="none" stroke="#D1D3D4" stroke-linecap="round" stroke-linejoin="round" stroke-miterlimit="10" stroke-width="4"/><path d="M76,17.51c20.7,5.33,36,24.12,36,46.49s-15.3,41.16-36,46.49V17.51z" fill="#A80216"/><path d="M76,17.51v92.98c-1.31,0.34-2.65,0.62-4,0.84V16.67C73.35,16.89,74.69,17.17,76,17.51z" fill="#A80216"/><path d="M72,16.67v94.66c-1.31,0.23-2.65,0.39-4,0.5V16.17C69.35,16.28,70.69,16.44,72,16.67z" fill="#A80216"/><path d="M68,16.17v95.66c-1.32,0.11-2.65,0.17-4,0.17s-2.68-0.06-4-0.17V16.17c1.32-0.11,2.65-0.17,4-0.17   S66.68,16.06,68,16.17z" fill="#A80216"/><path d="M60,16.17v95.66c-1.35-0.11-2.69-0.27-4-0.5V16.67C57.31,16.44,58.65,16.28,60,16.17z" fill="#A80216"/><path d="M56,16.67v94.66c-1.35-0.22-2.69-0.5-4-0.84V17.51C53.31,17.17,54.65,16.89,56,16.67z" fill="#A80216"/><path d="M52,17.51v92.98C31.3,105.16,16,86.37,16,64S31.3,22.84,52,17.51z" fill="#A80216"/><polyline fill="none" points="   52,10 52,17.51 52,110.49 52,118  " stroke="#231F20" stroke-linecap="round" stroke-linejoin="round" stroke-miterlimit="10" stroke-width="2"/><polyline fill="none" points="   72,9 72,16.67 72,111.33 72,119  " stroke="#231F20" stroke-linecap="round" stroke-linejoin="round" stroke-miterlimit="10" stroke-width="2"/><polyline fill="none" points="   56,9 56,16.67 56,111.33 56,119  " stroke="#231F20" stroke-linecap="round" stroke-linejoin="round" stroke-miterlimit="10" stroke-width="2"/><polyline fill="none" points="   68,8 68,16.17 68,111.83 68,120  " stroke="#231F20" stroke-linecap="round" stroke-linejoin="round" stroke-miterlimit="10" stroke-width="2"/><line fill="#C2B59B" stroke="#C2B59B" stroke-linecap="round" stroke-linejoin="round" stroke-miterlimit="10" stroke-width="2" x1="51.54" x2="52" y1="19.19" y2="21.337"/><line fill="#C2B59B" stroke="#C2B59B" stroke-linecap="round" stroke-linejoin="round" stroke-miterlimit="10" stroke-width="2" x1="51.54" x2="52" y1="23.19" y2="25.337"/><line fill="#C2B59B" stroke="#C2B59B" stroke-linecap="round" stroke-linejoin="round" stroke-miterlimit="10" stroke-width="2" x1="51.54" x2="52" y1="27.19" y2="29.337"/><line fill="#C2B59B" stroke="#C2B59B" stroke-linecap="round" stroke-linejoin="round" stroke-miterlimit="10" stroke-width="2" x1="55.54" x2="56" y1="23.19" y2="25.337"/><line fill="#C2B59B" stroke="#C2B59B" stroke-linecap="round" stroke-linejoin="round" stroke-miterlimit="10" stroke-width="2" x1="55.54" x2="56" y1="27.19" y2="29.337"/><line fill="#C2B59B" stroke="#C2B59B" stroke-linecap="round" stroke-linejoin="round" stroke-miterlimit="10" stroke-width="2" x1="67.54" x2="68" y1="23.19" y2="25.337"/><line fill="#C2B59B" stroke="#C2B59B" stroke-linecap="round" stroke-linejoin="round" stroke-miterlimit="10" stroke-width="2" x1="67.54" x2="68" y1="27.19" y2="29.337"/><line fill="#C2B59B" stroke="#C2B59B" stroke-linecap="round" stroke-linejoin="round" stroke-miterlimit="10" stroke-width="2" x1="71.54" x2="72" y1="23.19" y2="25.337"/><line fill="#C2B59B" stroke="#C2B59B" stroke-linecap="round" stroke-linejoin="round" stroke-miterlimit="10" stroke-width="2" x1="71.54" x2="72" y1="27.19" y2="29.337"/><path d="M81,19.105c-1.628-0.617-3.293-1.156-5-1.596v92.98c1.707-0.439,3.372-0.979,5-1.596V19.105z" fill="#8C041B"/><line fill="#C2B59B" stroke="#C2B59B" stroke-linecap="round" stroke-linejoin="round" stroke-miterlimit="10" stroke-width="2" x1="51.54" x2="52" y1="31.19" y2="33.337"/><line fill="#C2B59B" stroke="#C2B59B" stroke-linecap="round" stroke-linejoin="round" stroke-miterlimit="10" stroke-width="2" x1="51.54" x2="52" y1="35.19" y2="37.337"/><line fill="#C2B59B" stroke="#C2B59B" stroke-linecap="round" stroke-linejoin="round" stroke-miterlimit="10" stroke-width="2" x1="51.54" x2="52" y1="39.19" y2="41.337"/><line fill="#C2B59B" stroke="#C2B59B" stroke-linecap="round" stroke-linejoin="round" stroke-miterlimit="10" stroke-width="2" x1="55.54" x2="56" y1="31.19" y2="33.337"/><line fill="#C2B59B" stroke="#C2B59B" stroke-linecap="round" stroke-linejoin="round" stroke-miterlimit="10" stroke-width="2" x1="55.54" x2="56" y1="35.19" y2="37.337"/><line fill="#C2B59B" stroke="#C2B59B" stroke-linecap="round" stroke-linejoin="round" stroke-miterlimit="10" stroke-width="2" x1="55.54" x2="56" y1="39.19" y2="41.337"/><line fill="#C2B59B" stroke="#C2B59B" stroke-linecap="round" stroke-linejoin="round" stroke-miterlimit="10" stroke-width="2" x1="67.54" x2="68" y1="31.19" y2="33.337"/><line fill="#C2B59B" stroke="#C2B59B" stroke-linecap="round" stroke-linejoin="round" stroke-miterlimit="10" stroke-width="2" x1="67.54" x2="68" y1="35.19" y2="37.337"/><line fill="#C2B59B" stroke="#C2B59B" stroke-linecap="round" stroke-linejoin="round" stroke-miterlimit="10" stroke-width="2" x1="67.54" x2="68" y1="39.19" y2="41.337"/><line fill="#C2B59B" stroke="#C2B59B" stroke-linecap="round" stroke-linejoin="round" stroke-miterlimit="10" stroke-width="2" x1="71.54" x2="72" y1="31.19" y2="33.337"/><line fill="#C2B59B" stroke="#C2B59B" stroke-linecap="round" stroke-linejoin="round" stroke-miterlimit="10" stroke-width="2" x1="71.54" x2="72" y1="35.19" y2="37.337"/><line fill="#C2B59B" stroke="#C2B59B" stroke-linecap="round" stroke-linejoin="round" stroke-miterlimit="10" stroke-width="2" x1="71.54" x2="72" y1="39.19" y2="41.337"/><line fill="#C2B59B" stroke="#C2B59B" stroke-linecap="round" stroke-linejoin="round" stroke-miterlimit="10" stroke-width="2" x1="51.54" x2="52" y1="43.19" y2="45.337"/><line fill="#C2B59B" stroke="#C2B59B" stroke-linecap="round" stroke-linejoin="round" stroke-miterlimit="10" stroke-width="2" x1="51.54" x2="52" y1="47.19" y2="49.337"/><line fill="#C2B59B" stroke="#C2B59B" stroke-linecap="round" stroke-linejoin="round" stroke-miterlimit="10" stroke-width="2" x1="51.54" x2="52" y1="51.19" y2="53.337"/><line fill="#C2B59B" stroke="#C2B59B" stroke-linecap="round" stroke-linejoin="round" stroke-miterlimit="10" stroke-width="2" x1="55.54" x2="56" y1="43.19" y2="45.337"/><line fill="#C2B59B" stroke="#C2B59B" stroke-linecap="round" stroke-linejoin="round" stroke-miterlimit="10" stroke-width="2" x1="55.54" x2="56" y1="47.19" y2="49.337"/><line fill="#C2B59B" stroke="#C2B59B" stroke-linecap="round" stroke-linejoin="round" stroke-miterlimit="10" stroke-width="2" x1="55.54" x2="56" y1="51.19" y2="53.337"/><line fill="#C2B59B" stroke="#C2B59B" stroke-linecap="round" stroke-linejoin="round" stroke-miterlimit="10" stroke-width="2" x1="67.54" x2="68" y1="43.19" y2="45.337"/><line fill="#C2B59B" stroke="#C2B59B" stroke-linecap="round" stroke-linejoin="round" stroke-miterlimit="10" stroke-width="2" x1="67.54" x2="68" y1="47.19" y2="49.337"/><line fill="#C2B59B" stroke="#C2B59B" stroke-linecap="round" stroke-linejoin="round" stroke-miterlimit="10" stroke-width="2" x1="67.54" x2="68" y1="51.19" y2="53.337"/><line fill="#C2B59B" stroke="#C2B59B" stroke-linecap="round" stroke-linejoin="round" stroke-miterlimit="10" stroke-width="2" x1="71.54" x2="72" y1="43.19" y2="45.337"/><line fill="#C2B59B" stroke="#C2B59B" stroke-linecap="round" stroke-linejoin="round" stroke-miterlimit="10" stroke-width="2" x1="71.54" x2="72" y1="47.19" y2="49.337"/><line fill="#C2B59B" stroke="#C2B59B" stroke-linecap="round" stroke-linejoin="round" stroke-miterlimit="10" stroke-width="2" x1="71.54" x2="72" y1="51.19" y2="53.337"/><line fill="#C2B59B" stroke="#C2B59B" stroke-linecap="round" stroke-linejoin="round" stroke-miterlimit="10" stroke-width="2" x1="51.54" x2="52" y1="55.19" y2="57.337"/><line fill="#C2B59B" stroke="#C2B59B" stroke-linecap="round" stroke-linejoin="round" stroke-miterlimit="10" stroke-width="2" x1="51.54" x2="52" y1="59.19" y2="61.337"/><line fill="#C2B59B" stroke="#C2B59B" stroke-linecap="round" stroke-linejoin="round" stroke-miterlimit="10" stroke-width="2" x1="51.54" x2="52" y1="63.19" y2="65.337"/><line fill="#C2B59B" stroke="#C2B59B" stroke-linecap="round" stroke-linejoin="round" stroke-miterlimit="10" stroke-width="2" x1="55.54" x2="56" y1="55.19" y2="57.337"/><line fill="#C2B59B" stroke="#C2B59B" stroke-linecap="round" stroke-linejoin="round" stroke-miterlimit="10" stroke-width="2" x1="55.54" x2="56" y1="59.19" y2="61.337"/><line fill="#C2B59B" stroke="#C2B59B" stroke-linecap="round" stroke-linejoin="round" stroke-miterlimit="10" stroke-width="2" x1="55.54" x2="56" y1="63.19" y2="65.337"/><line fill="#C2B59B" stroke="#C2B59B" stroke-linecap="round" stroke-linejoin="round" stroke-miterlimit="10" stroke-width="2" x1="67.54" x2="68" y1="55.19" y2="57.337"/><line fill="#C2B59B" stroke="#C2B59B" stroke-linecap="round" stroke-linejoin="round" stroke-miterlimit="10" stroke-width="2" x1="67.54" x2="68" y1="59.19" y2="61.337"/><line fill="#C2B59B" stroke="#C2B59B" stroke-linecap="round" stroke-linejoin="round" stroke-miterlimit="10" stroke-width="2" x1="67.54" x2="68" y1="63.19" y2="65.337"/><line fill="#C2B59B" stroke="#C2B59B" stroke-linecap="round" stroke-linejoin="round" stroke-miterlimit="10" stroke-width="2" x1="71.54" x2="72" y1="55.19" y2="57.337"/><line fill="#C2B59B" stroke="#C2B59B" stroke-linecap="round" stroke-linejoin="round" stroke-miterlimit="10" stroke-width="2" x1="71.54" x2="72" y1="59.19" y2="61.337"/><line fill="#C2B59B" stroke="#C2B59B" stroke-linecap="round" stroke-linejoin="round" stroke-miterlimit="10" stroke-width="2" x1="71.54" x2="72" y1="63.19" y2="65.337"/><line fill="#C2B59B" stroke="#C2B59B" stroke-linecap="round" stroke-linejoin="round" stroke-miterlimit="10" stroke-width="2" x1="51.54" x2="52" y1="67.19" y2="69.337"/><line fill="#C2B59B" stroke="#C2B59B" stroke-linecap="round" stroke-linejoin="round" stroke-miterlimit="10" stroke-width="2" x1="51.54" x2="52" y1="71.19" y2="73.337"/><line fill="#C2B59B" stroke="#C2B59B" stroke-linecap="round" stroke-linejoin="round" stroke-miterlimit="10" stroke-width="2" x1="51.54" x2="52" y1="75.19" y2="77.337"/><line fill="#C2B59B" stroke="#C2B59B" stroke-linecap="round" stroke-linejoin="round" stroke-miterlimit="10" stroke-width="2" x1="55.54" x2="56" y1="67.19" y2="69.337"/><line fill="#C2B59B" stroke="#C2B59B" stroke-linecap="round" stroke-linejoin="round" stroke-miterlimit="10" stroke-width="2" x1="55.54" x2="56" y1="71.19" y2="73.337"/><line fill="#C2B59B" stroke="#C2B59B" stroke-linecap="round" stroke-linejoin="round" stroke-miterlimit="10" stroke-width="2" x1="55.54" x2="56" y1="75.19" y2="77.337"/><line fill="#C2B59B" stroke="#C2B59B" stroke-linecap="round" stroke-linejoin="round" stroke-miterlimit="10" stroke-width="2" x1="67.54" x2="68" y1="67.19" y2="69.337"/><line fill="#C2B59B" stroke="#C2B59B" stroke-linecap="round" stroke-linejoin="round" stroke-miterlimit="10" stroke-width="2" x1="67.54" x2="68" y1="71.19" y2="73.337"/><line fill="#C2B59B" stroke="#C2B59B" stroke-linecap="round" stroke-linejoin="round" stroke-miterlimit="10" stroke-width="2" x1="67.54" x2="68" y1="75.19" y2="77.337"/><line fill="#C2B59B" stroke="#C2B59B" stroke-linecap="round" stroke-linejoin="round" stroke-miterlimit="10" stroke-width="2" x1="71.54" x2="72" y1="67.19" y2="69.337"/><line fill="#C2B59B" stroke="#C2B59B" stroke-linecap="round" stroke-linejoin="round" stroke-miterlimit="10" stroke-width="2" x1="71.54" x2="72" y1="71.19" y2="73.337"/><line fill="#C2B59B" stroke="#C2B59B" stroke-linecap="round" stroke-linejoin="round" stroke-miterlimit="10" stroke-width="2" x1="71.54" x2="72" y1="75.19" y2="77.337"/><line fill="#C2B59B" stroke="#C2B59B" stroke-linecap="round" stroke-linejoin="round" stroke-miterlimit="10" stroke-width="2" x1="51.54" x2="52" y1="79.19" y2="81.337"/><line fill="#C2B59B" stroke="#C2B59B" stroke-linecap="round" stroke-linejoin="round" stroke-miterlimit="10" stroke-width="2" x1="51.54" x2="52" y1="83.19" y2="85.337"/><line fill="#C2B59B" stroke="#C2B59B" stroke-linecap="round" stroke-linejoin="round" stroke-miterlimit="10" stroke-width="2" x1="51.54" x2="52" y1="87.19" y2="89.337"/><line fill="#C2B59B" stroke="#C2B59B" stroke-linecap="round" stroke-linejoin="round" stroke-miterlimit="10" stroke-width="2" x1="55.54" x2="56" y1="79.19" y2="81.337"/><line fill="#C2B59B" stroke="#C2B59B" stroke-linecap="round" stroke-linejoin="round" stroke-miterlimit="10" stroke-width="2" x1="55.54" x2="56" y1="83.19" y2="85.337"/><line fill="#C2B59B" stroke="#C2B59B" stroke-linecap="round" stroke-linejoin="round" stroke-miterlimit="10" stroke-width="2" x1="55.54" x2="56" y1="87.19" y2="89.337"/><line fill="#C2B59B" stroke="#C2B59B" stroke-linecap="round" stroke-linejoin="round" stroke-miterlimit="10" stroke-width="2" x1="67.54" x2="68" y1="79.19" y2="81.337"/><line fill="#C2B59B" stroke="#C2B59B" stroke-linecap="round" stroke-linejoin="round" stroke-miterlimit="10" stroke-width="2" x1="67.54" x2="68" y1="83.19" y2="85.337"/><line fill="#C2B59B" stroke="#C2B59B" stroke-linecap="round" stroke-linejoin="round" stroke-miterlimit="10" stroke-width="2" x1="67.54" x2="68" y1="87.19" y2="89.337"/><line fill="#C2B59B" stroke="#C2B59B" stroke-linecap="round" stroke-linejoin="round" stroke-miterlimit="10" stroke-width="2" x1="71.54" x2="72" y1="79.19" y2="81.337"/><line fill="#C2B59B" stroke="#C2B59B" stroke-linecap="round" stroke-linejoin="round" stroke-miterlimit="10" stroke-width="2" x1="71.54" x2="72" y1="83.19" y2="85.337"/><line fill="#C2B59B" stroke="#C2B59B" stroke-linecap="round" stroke-linejoin="round" stroke-miterlimit="10" stroke-width="2" x1="71.54" x2="72" y1="87.19" y2="89.337"/><line fill="#C2B59B" stroke="#C2B59B" stroke-linecap="round" stroke-linejoin="round" stroke-miterlimit="10" stroke-width="2" x1="51.54" x2="52" y1="91.19" y2="93.337"/><line fill="#C2B59B" stroke="#C2B59B" stroke-linecap="round" stroke-linejoin="round" stroke-miterlimit="10" stroke-width="2" x1="51.54" x2="52" y1="95.19" y2="97.337"/><line fill="#C2B59B" stroke="#C2B59B" stroke-linecap="round" stroke-linejoin="round" stroke-miterlimit="10" stroke-width="2" x1="51.54" x2="52" y1="99.19" y2="101.337"/><line fill="#C2B59B" stroke="#C2B59B" stroke-linecap="round" stroke-linejoin="round" stroke-miterlimit="10" stroke-width="2" x1="55.54" x2="56" y1="91.19" y2="93.337"/><line fill="#C2B59B" stroke="#C2B59B" stroke-linecap="round" stroke-linejoin="round" stroke-miterlimit="10" stroke-width="2" x1="55.54" x2="56" y1="95.19" y2="97.337"/><line fill="#C2B59B" stroke="#C2B59B" stroke-linecap="round" stroke-linejoin="round" stroke-miterlimit="10" stroke-width="2" x1="55.54" x2="56" y1="99.19" y2="101.337"/><line fill="#C2B59B" stroke="#C2B59B" stroke-linecap="round" stroke-linejoin="round" stroke-miterlimit="10" stroke-width="2" x1="67.54" x2="68" y1="91.19" y2="93.337"/><line fill="#C2B59B" stroke="#C2B59B" stroke-linecap="round" stroke-linejoin="round" stroke-miterlimit="10" stroke-width="2" x1="67.54" x2="68" y1="95.19" y2="97.337"/><line fill="#C2B59B" stroke="#C2B59B" stroke-linecap="round" stroke-linejoin="round" stroke-miterlimit="10" stroke-width="2" x1="67.54" x2="68" y1="99.19" y2="101.337"/><line fill="#C2B59B" stroke="#C2B59B" stroke-linecap="round" stroke-linejoin="round" stroke-miterlimit="10" stroke-width="2" x1="71.54" x2="72" y1="91.19" y2="93.337"/><line fill="#C2B59B" stroke="#C2B59B" stroke-linecap="round" stroke-linejoin="round" stroke-miterlimit="10" stroke-width="2" x1="71.54" x2="72" y1="95.19" y2="97.337"/><line fill="#C2B59B" stroke="#C2B59B" stroke-linecap="round" stroke-linejoin="round" stroke-miterlimit="10" stroke-width="2" x1="71.54" x2="72" y1="99.19" y2="101.337"/><line fill="#C2B59B" stroke="#C2B59B" stroke-linecap="round" stroke-linejoin="round" stroke-miterlimit="10" stroke-width="2" x1="51.54" x2="52" y1="103.19" y2="105.337"/><line fill="#C2B59B" stroke="#C2B59B" stroke-linecap="round" stroke-linejoin="round" stroke-miterlimit="10" stroke-width="2" x1="55.54" x2="56" y1="103.19" y2="105.337"/><line fill="#C2B59B" stroke="#C2B59B" stroke-linecap="round" stroke-linejoin="round" stroke-miterlimit="10" stroke-width="2" x1="67.54" x2="68" y1="103.19" y2="105.337"/><line fill="#C2B59B" stroke="#C2B59B" stroke-linecap="round" stroke-linejoin="round" stroke-miterlimit="10" stroke-width="2" x1="71.54" x2="72" y1="103.19" y2="105.337"/><path d="M21,64c0-20.526,12.885-38.029,31-44.895V17.51C31.3,22.84,16,41.63,16,64s15.3,41.16,36,46.49v-1.596   C33.885,102.029,21,84.526,21,64z" fill="#8C041B"/><path d="M65,111.83V16.17c0.498-0.042,0.999-0.068,1.5-0.095C65.672,16.031,64.841,16,64,16   c-1.35,0-2.68,0.06-4,0.17v95.66c1.32,0.11,2.65,0.17,4,0.17c0.841,0,1.672-0.031,2.5-0.075   C65.999,111.898,65.498,111.872,65,111.83z" fill="#8C041B"/><path d="   M76,17.51c20.7,5.33,36,24.12,36,46.49s-15.3,41.16-36,46.49c-1.31,0.34-2.65,0.62-4,0.84c-1.31,0.23-2.65,0.39-4,0.5   c-1.32,0.11-2.65,0.17-4,0.17s-2.68-0.06-4-0.17c-1.35-0.11-2.69-0.27-4-0.5c-1.35-0.22-2.69-0.5-4-0.84   C31.3,105.16,16,86.37,16,64s15.3-41.16,36-46.49c1.31-0.34,2.65-0.62,4-0.84c1.31-0.23,2.65-0.39,4-0.5   c1.32-0.11,2.65-0.17,4-0.17s2.68,0.06,4,0.17c1.35,0.11,2.69,0.27,4,0.5C73.35,16.89,74.69,17.17,76,17.51z" fill="none" stroke="#231F20" stroke-linecap="round" stroke-linejoin="round" stroke-miterlimit="10" stroke-width="4"/><polyline fill="none" points="   60,8 60,16.17 60,111.83 60,120  " stroke="#231F20" stroke-linecap="round" stroke-linejoin="round" stroke-miterlimit="10" stroke-width="2"/><line fill="#C2B59B" stroke="#C2B59B" stroke-linecap="round" stroke-linejoin="round" stroke-miterlimit="10" stroke-width="2" x1="59.54" x2="60" y1="19.19" y2="21.337"/><line fill="#C2B59B" stroke="#C2B59B" stroke-linecap="round" stroke-linejoin="round" stroke-miterlimit="10" stroke-width="2" x1="59.54" x2="60" y1="23.19" y2="25.337"/><line fill="#C2B59B" stroke="#C2B59B" stroke-linecap="round" stroke-linejoin="round" stroke-miterlimit="10" stroke-width="2" x1="59.54" x2="60" y1="27.19" y2="29.337"/><line fill="#C2B59B" stroke="#C2B59B" stroke-linecap="round" stroke-linejoin="round" stroke-miterlimit="10" stroke-width="2" x1="59.54" x2="60" y1="31.19" y2="33.337"/><line fill="#C2B59B" stroke="#C2B59B" stroke-linecap="round" stroke-linejoin="round" stroke-miterlimit="10" stroke-width="2" x1="59.54" x2="60" y1="35.19" y2="37.337"/><line fill="#C2B59B" stroke="#C2B59B" stroke-linecap="round" stroke-linejoin="round" stroke-miterlimit="10" stroke-width="2" x1="59.54" x2="60" y1="39.19" y2="41.337"/><line fill="#C2B59B" stroke="#C2B59B" stroke-linecap="round" stroke-linejoin="round" stroke-miterlimit="10" stroke-width="2" x1="59.54" x2="60" y1="43.19" y2="45.337"/><line fill="#C2B59B" stroke="#C2B59B" stroke-linecap="round" stroke-linejoin="round" stroke-miterlimit="10" stroke-width="2" x1="59.54" x2="60" y1="47.19" y2="49.337"/><line fill="#C2B59B" stroke="#C2B59B" stroke-linecap="round" stroke-linejoin="round" stroke-miterlimit="10" stroke-width="2" x1="59.54" x2="60" y1="51.19" y2="53.337"/><line fill="#C2B59B" stroke="#C2B59B" stroke-linecap="round" stroke-linejoin="round" stroke-miterlimit="10" stroke-width="2" x1="59.54" x2="60" y1="55.19" y2="57.337"/><line fill="#C2B59B" stroke="#C2B59B" stroke-linecap="round" stroke-linejoin="round" stroke-miterlimit="10" stroke-width="2" x1="59.54" x2="60" y1="59.19" y2="61.337"/><line fill="#C2B59B" stroke="#C2B59B" stroke-linecap="round" stroke-linejoin="round" stroke-miterlimit="10" stroke-width="2" x1="59.54" x2="60" y1="63.19" y2="65.337"/><line fill="#C2B59B" stroke="#C2B59B" stroke-linecap="round" stroke-linejoin="round" stroke-miterlimit="10" stroke-width="2" x1="59.54" x2="60" y1="67.19" y2="69.337"/><line fill="#C2B59B" stroke="#C2B59B" stroke-linecap="round" stroke-linejoin="round" stroke-miterlimit="10" stroke-width="2" x1="59.54" x2="60" y1="71.19" y2="73.337"/><line fill="#C2B59B" stroke="#C2B59B" stroke-linecap="round" stroke-linejoin="round" stroke-miterlimit="10" stroke-width="2" x1="59.54" x2="60" y1="75.19" y2="77.337"/><line fill="#C2B59B" stroke="#C2B59B" stroke-linecap="round" stroke-linejoin="round" stroke-miterlimit="10" stroke-width="2" x1="59.54" x2="60" y1="79.19" y2="81.337"/><line fill="#C2B59B" stroke="#C2B59B" stroke-linecap="round" stroke-linejoin="round" stroke-miterlimit="10" stroke-width="2" x1="59.54" x2="60" y1="83.19" y2="85.337"/><line fill="#C2B59B" stroke="#C2B59B" stroke-linecap="round" stroke-linejoin="round" stroke-miterlimit="10" stroke-width="2" x1="59.54" x2="60" y1="87.19" y2="89.337"/><line fill="#C2B59B" stroke="#C2B59B" stroke-linecap="round" stroke-linejoin="round" stroke-miterlimit="10" stroke-width="2" x1="59.54" x2="60" y1="91.19" y2="93.337"/><line fill="#C2B59B" stroke="#C2B59B" stroke-linecap="round" stroke-linejoin="round" stroke-miterlimit="10" stroke-width="2" x1="59.54" x2="60" y1="95.19" y2="97.337"/><line fill="#C2B59B" stroke="#C2B59B" stroke-linecap="round" stroke-linejoin="round" stroke-miterlimit="10" stroke-width="2" x1="59.54" x2="60" y1="99.19" y2="101.337"/><line fill="#C2B59B" stroke="#C2B59B" stroke-linecap="round" stroke-linejoin="round" stroke-miterlimit="10" stroke-width="2" x1="59.54" x2="60" y1="103.19" y2="105.337"/><line fill="#C2B59B" stroke="#C2B59B" stroke-linecap="round" stroke-linejoin="round" stroke-miterlimit="10" stroke-width="2" x1="59.54" x2="60" y1="107.19" y2="109.337"/><line fill="#C2B59B" stroke="#C2B59B" stroke-linecap="round" stroke-linejoin="round" stroke-miterlimit="10" stroke-width="2" x1="51.54" x2="52" y1="20.19" y2="22.337"/><line fill="#C2B59B" stroke="#C2B59B" stroke-linecap="round" stroke-linejoin="round" stroke-miterlimit="10" stroke-width="2" x1="55.54" x2="56" y1="19.19" y2="21.337"/><polyline fill="none" points="   76,10 76,17.51 76,110.49 76,118  " stroke="#231F20" stroke-linecap="round" stroke-linejoin="round" stroke-miterlimit="10" stroke-width="2"/><line fill="#C2B59B" stroke="#C2B59B" stroke-linecap="round" stroke-linejoin="round" stroke-miterlimit="10" stroke-width="2" x1="75.54" x2="76" y1="20.19" y2="22.337"/><line fill="#C2B59B" stroke="#C2B59B" stroke-linecap="round" stroke-linejoin="round" stroke-miterlimit="10" stroke-width="2" x1="75.54" x2="76" y1="23.19" y2="25.337"/><line fill="#C2B59B" stroke="#C2B59B" stroke-linecap="round" stroke-linejoin="round" stroke-miterlimit="10" stroke-width="2" x1="75.54" x2="76" y1="27.19" y2="29.337"/><line fill="#C2B59B" stroke="#C2B59B" stroke-linecap="round" stroke-linejoin="round" stroke-miterlimit="10" stroke-width="2" x1="75.54" x2="76" y1="31.19" y2="33.337"/><line fill="#C2B59B" stroke="#C2B59B" stroke-linecap="round" stroke-linejoin="round" stroke-miterlimit="10" stroke-width="2" x1="75.54" x2="76" y1="35.19" y2="37.337"/><line fill="#C2B59B" stroke="#C2B59B" stroke-linecap="round" stroke-linejoin="round" stroke-miterlimit="10" stroke-width="2" x1="75.54" x2="76" y1="39.19" y2="41.337"/><line fill="#C2B59B" stroke="#C2B59B" stroke-linecap="round" stroke-linejoin="round" stroke-miterlimit="10" stroke-width="2" x1="67.54" x2="68" y1="19.19" y2="21.337"/><line fill="#C2B59B" stroke="#C2B59B" stroke-linecap="round" stroke-linejoin="round" stroke-miterlimit="10" stroke-width="2" x1="71.54" x2="72" y1="19.19" y2="21.337"/><line fill="#C2B59B" stroke="#C2B59B" stroke-linecap="round" stroke-linejoin="round" stroke-miterlimit="10" stroke-width="2" x1="75.54" x2="76" y1="43.19" y2="45.337"/><line fill="#C2B59B" stroke="#C2B59B" stroke-linecap="round" stroke-linejoin="round" stroke-miterlimit="10" stroke-width="2" x1="75.54" x2="76" y1="47.19" y2="49.337"/><line fill="#C2B59B" stroke="#C2B59B" stroke-linecap="round" stroke-linejoin="round" stroke-miterlimit="10" stroke-width="2" x1="75.54" x2="76" y1="51.19" y2="53.337"/><line fill="#C2B59B" stroke="#C2B59B" stroke-linecap="round" stroke-linejoin="round" stroke-miterlimit="10" stroke-width="2" x1="75.54" x2="76" y1="55.19" y2="57.337"/><line fill="#C2B59B" stroke="#C2B59B" stroke-linecap="round" stroke-linejoin="round" stroke-miterlimit="10" stroke-width="2" x1="75.54" x2="76" y1="59.19" y2="61.337"/><line fill="#C2B59B" stroke="#C2B59B" stroke-linecap="round" stroke-linejoin="round" stroke-miterlimit="10" stroke-width="2" x1="75.54" x2="76" y1="63.19" y2="65.337"/><line fill="#C2B59B" stroke="#C2B59B" stroke-linecap="round" stroke-linejoin="round" stroke-miterlimit="10" stroke-width="2" x1="75.54" x2="76" y1="67.19" y2="69.337"/><line fill="#C2B59B" stroke="#C2B59B" stroke-linecap="round" stroke-linejoin="round" stroke-miterlimit="10" stroke-width="2" x1="75.54" x2="76" y1="71.19" y2="73.337"/><line fill="#C2B59B" stroke="#C2B59B" stroke-linecap="round" stroke-linejoin="round" stroke-miterlimit="10" stroke-width="2" x1="75.54" x2="76" y1="75.19" y2="77.337"/><line fill="#C2B59B" stroke="#C2B59B" stroke-linecap="round" stroke-linejoin="round" stroke-miterlimit="10" stroke-width="2" x1="75.54" x2="76" y1="79.19" y2="81.337"/><line fill="#C2B59B" stroke="#C2B59B" stroke-linecap="round" stroke-linejoin="round" stroke-miterlimit="10" stroke-width="2" x1="75.54" x2="76" y1="83.19" y2="85.337"/><line fill="#C2B59B" stroke="#C2B59B" stroke-linecap="round" stroke-linejoin="round" stroke-miterlimit="10" stroke-width="2" x1="75.54" x2="76" y1="87.19" y2="89.337"/><line fill="#C2B59B" stroke="#C2B59B" stroke-linecap="round" stroke-linejoin="round" stroke-miterlimit="10" stroke-width="2" x1="75.54" x2="76" y1="91.19" y2="93.337"/><line fill="#C2B59B" stroke="#C2B59B" stroke-linecap="round" stroke-linejoin="round" stroke-miterlimit="10" stroke-width="2" x1="75.54" x2="76" y1="95.19" y2="97.337"/><line fill="#C2B59B" stroke="#C2B59B" stroke-linecap="round" stroke-linejoin="round" stroke-miterlimit="10" stroke-width="2" x1="75.54" x2="76" y1="99.19" y2="101.337"/><line fill="#C2B59B" stroke="#C2B59B" stroke-linecap="round" stroke-linejoin="round" stroke-miterlimit="10" stroke-width="2" x1="75.54" x2="76" y1="103.19" y2="105.337"/><line fill="#C2B59B" stroke="#C2B59B" stroke-linecap="round" stroke-linejoin="round" stroke-miterlimit="10" stroke-width="2" x1="75.54" x2="76" y1="106.19" y2="108.337"/><line fill="#C2B59B" stroke="#C2B59B" stroke-linecap="round" stroke-linejoin="round" stroke-miterlimit="10" stroke-width="2" x1="67.54" x2="68" y1="107.19" y2="109.337"/><line fill="#C2B59B" stroke="#C2B59B" stroke-linecap="round" stroke-linejoin="round" stroke-miterlimit="10" stroke-width="2" x1="71.54" x2="72" y1="107.19" y2="109.337"/><line fill="#C2B59B" stroke="#C2B59B" stroke-linecap="round" stroke-linejoin="round" stroke-miterlimit="10" stroke-width="2" x1="51.54" x2="52" y1="106.19" y2="108.337"/><line fill="#C2B59B" stroke="#C2B59B" stroke-linecap="round" stroke-linejoin="round" stroke-miterlimit="10" stroke-width="2" x1="55.54" x2="56" y1="107.19" y2="109.337"/></g><g id="Layer_2"/></svg>